<?xml version="1.0" encoding="UTF-8"?>
<svg id="Layer_1" data-name="Layer 1" xmlns="http://www.w3.org/2000/svg" width="143" height="143" xmlns:xlink="http://www.w3.org/1999/xlink" viewBox="0 0 143 143">
  <defs>
    <style>
      .cls-1 {
        fill: none;
      }

      .cls-2 {
        clip-path: url(#clippath);
      }

      .cls-3 {
        fill: #e6332a;
      }
    </style>
    <clipPath id="clippath">
      <rect class="cls-1" x="0" y="0" width="143" height="143"/>
    </clipPath>
  </defs>
  <g class="cls-2">
    <path class="cls-3" d="M54.65,2.03C16.29,11.33-7.27,49.98,2.03,88.35c9.31,38.37,47.94,61.92,86.32,52.63,38.38-9.29,61.92-47.94,52.63-86.32C131.67,16.29,93.02-7.27,54.65,2.03Zm25.4,7.38c10.45-2.53,20.97,3.88,23.5,14.33,2.53,10.45-3.88,20.97-14.33,23.5-10.45,2.53-20.97-3.88-23.5-14.33-2.53-10.45,3.88-20.97,14.33-23.5Zm-45.45,11.03c10.45-2.53,20.97,3.88,23.5,14.33,2.53,10.45-3.88,20.97-14.33,23.5-10.45,2.53-20.97-3.88-23.5-14.33-2.53-10.45,3.88-20.97,14.33-23.5ZM6.45,88.11c-2.53-10.45,3.88-20.97,14.33-23.5,10.45-2.53,20.97,3.88,23.5,14.33,2.53,10.45-3.88,20.97-14.33,23.5-10.45,2.53-20.97-3.88-23.5-14.33Zm56.31,48.46c-10.45,2.53-20.97-3.88-23.5-14.33-2.53-10.45,3.88-20.97,14.33-23.5,10.45-2.53,20.97,3.88,23.5,14.33,2.53,10.45-3.88,20.97-14.33,23.51Zm.23-63.01c-1.14-4.69,1.74-9.41,6.44-10.55,4.69-1.14,9.41,1.74,10.55,6.44,1.14,4.69-1.74,9.41-6.44,10.55-4.69,1.14-9.41-1.74-10.55-6.44Zm45.2,51.99c-10.45,2.53-20.97-3.88-23.5-14.33-2.53-10.45,3.88-20.97,14.33-23.5,10.45-2.53,20.97,3.88,23.5,14.33,2.53,10.45-3.88,20.97-14.33,23.5Zm13.52-45.37c-10.45,2.53-20.97-3.88-23.5-14.33-2.53-10.45,3.88-20.97,14.33-23.5,10.45-2.53,20.97,3.88,23.51,14.33,2.53,10.45-3.88,20.97-14.33,23.5Z"/>
  </g>
</svg>