<?xml version="1.0" encoding="UTF-8"?>
<svg id="Layer_1" data-name="Layer 1" xmlns="http://www.w3.org/2000/svg" width="198.23" height="157.72" xmlns:xlink="http://www.w3.org/1999/xlink" viewBox="0 0 198.23 157.72">
  <defs>
    <style>
      .cls-1 {
        fill: none;
      }

      .cls-2 {
        clip-path: url(#clippath);
      }

      .cls-3 {
        fill: #e6332a;
      }

      .cls-4 {
        fill: #fff;
      }
    </style>
    <clipPath id="clippath">
      <rect class="cls-1" x="54.64" y="55.96" width="86.75" height="70.2"/>
    </clipPath>
  </defs>
  <path class="cls-4" d="M98.5,21l5.34,9.21,6.9-8.11,3.6,10.02,8.23-6.75,1.76,10.5,9.31-5.17-.15,10.65,10.08-3.43-2.04,10.45,10.53-1.57-3.88,9.92,10.64,.33-5.58,9.06,3.3,10.15,9.85,4.05-8.41,6.52,8.96,5.74-9.44,4.92,7.79,7.25-10.17,3.15,6.38,8.53-10.57,1.29,4.75,9.53-10.63-.62,2.97,10.22-10.35-2.51,1.1,10.59-9.73-4.32-.81,10.62-8.8-5.99-2.69,10.3-7.6-7.46-4.49,9.65-6.14-8.7-6.14,8.7-4.49-9.65-7.59,7.46-2.69-10.3-8.8,5.99-.81-10.62-9.73,4.32,1.1-10.59-10.35,2.51,2.97-10.22-10.63,.62,4.75-9.53-10.57-1.29,6.37-8.53-10.17-3.15,7.79-7.25-9.44-4.92,8.96-5.74-8.41-6.52,9.85-4.05,3.3-10.15-5.58-9.06,10.64-.33-3.88-9.92,10.53,1.57-2.04-10.45,10.08,3.43-.14-10.65,9.31,5.17,1.76-10.5,8.23,6.75,3.61-10.02,6.9,8.11,5.34-9.21Z"/>
  <g class="cls-2">
    <g>
      <path class="cls-3" d="M141.33,82.89c-5.59,17.77-22.97,30.73-43.54,30.73-11.45,0-21.91-4.02-29.9-10.64v-.03s-.04,0-.04,0c-6.01-4.99-10.63-11.46-13.2-18.82,0,.32-.01,.63-.01,.95,0,7.3,2.02,14.15,5.54,20.09l.43,19.31,4.34-12.82c7.96,8.87,19.81,14.51,33.06,14.51s25.11-5.64,33.06-14.51l4.34,12.82,.44-19.31c3.53-5.94,5.54-12.79,5.54-20.09,0-.73-.02-1.46-.06-2.19Z"/>
      <path d="M78.56,55.96l1.52,9.82,4.49-8.87-1.59,9.81,7.02-7.05-4.56,8.84,8.86-4.54-7.07,7,9.83-1.59-8.9,4.47,9.85,1.52-9.85,1.52,8.9,4.47-9.83-1.59,7.07,7-8.86-4.55,4.56,8.84-7.02-7.05,1.59,9.81-4.49-8.87-1.52,9.82-1.52-9.82-4.49,8.87,1.59-9.81-7.02,7.05,4.56-8.84-8.86,4.55,7.07-7-9.83,1.59,8.89-4.47-9.85-1.52,9.85-1.52-8.89-4.47,9.83,1.59-7.07-7,8.86,4.54-4.56-8.84,7.02,7.05-1.59-9.81,4.49,8.87,1.52-9.82Z"/>
      <path class="cls-4" d="M78.56,78.14c1.54,0,2.78-1.24,2.78-2.78s-1.25-2.78-2.78-2.78-2.78,1.24-2.78,2.78,1.25,2.78,2.78,2.78Z"/>
      <path d="M117.47,55.96l1.52,9.82,4.49-8.87-1.6,9.81,7.02-7.05-4.55,8.84,8.86-4.54-7.07,7,9.83-1.59-8.9,4.47,9.85,1.52-9.85,1.52,8.9,4.47-9.83-1.59,7.07,7-8.86-4.55,4.55,8.84-7.02-7.05,1.6,9.81-4.49-8.87-1.52,9.82-1.52-9.82-4.49,8.87,1.6-9.81-7.02,7.05,4.56-8.84-8.86,4.55,7.07-7-9.83,1.59,8.89-4.47-9.85-1.52,9.85-1.52-8.89-4.47,9.83,1.59-7.07-7,8.86,4.54-4.56-8.84,7.02,7.05-1.6-9.81,4.49,8.87,1.52-9.82Z"/>
      <path class="cls-4" d="M117.47,78.14c1.54,0,2.78-1.24,2.78-2.78s-1.25-2.78-2.78-2.78-2.78,1.24-2.78,2.78,1.25,2.78,2.78,2.78Z"/>
    </g>
  </g>
  <path class="cls-4" d="M165.12,0l-32.12,42.71,5.63,4.97,26.49,26.49v-26.49l33.11,35.76L165.12,0Z"/>
  <path class="cls-4" d="M33.11,0l32.12,42.71-5.63,4.97-26.49,26.49v-26.49L0,83.44,33.11,0Z"/>
</svg>