<?xml version="1.0" encoding="UTF-8"?>
<svg id="Layer_1" data-name="Layer 1" xmlns="http://www.w3.org/2000/svg" width="155" height="1565.03" viewBox="0 0 155 1565.03">
  <defs>
    <style>
      .cls-1 {
        fill: #fff;
      }

      .cls-2 {
        fill: #04ff00;
      }

      .cls-3 {
        fill: #1d1d1b;
      }
    </style>
  </defs>
  <path class="cls-2" d="M0,492.66V47.77L16,18l-6.28,52.88V1565.03H0"/>
  <path class="cls-2" d="M155,476.89V36.12l-16-24.12,6.28,89.73V1565.03h9.72"/>
  <path class="cls-2" d="M36.06,83.89c19.92,0,36.06-16.17,36.06-36.12S55.98,11.65,36.06,11.65,0,27.82,0,47.77s16.15,36.12,36.06,36.12Z"/>
  <path class="cls-2" d="M118.94,72.24c19.92,0,36.06-16.17,36.06-36.12S138.85,0,118.94,0s-36.06,16.17-36.06,36.12,16.15,36.12,36.06,36.12Z"/>
  <path class="cls-1" d="M44.7,73.83c13.43,0,24.33-10.91,24.33-24.36s-10.89-24.36-24.33-24.36-24.33,10.91-24.33,24.36,10.89,24.36,24.33,24.36Z"/>
  <path class="cls-3" d="M44.7,56.98c4.14,0,7.5-3.36,7.5-7.51s-3.36-7.51-7.5-7.51-7.5,3.36-7.5,7.51,3.36,7.51,7.5,7.51Z"/>
  <path class="cls-1" d="M110.11,60.49c13.43,0,24.33-10.91,24.33-24.36s-10.89-24.36-24.33-24.36-24.33,10.91-24.33,24.36,10.89,24.36,24.33,24.36Z"/>
  <path class="cls-3" d="M110.11,43.37c4.14,0,7.5-3.36,7.5-7.51s-3.36-7.51-7.5-7.51-7.5,3.36-7.5,7.51,3.36,7.51,7.5,7.51Z"/>
</svg>