<?xml version="1.0" encoding="utf-8"?>
<!-- Generator: Adobe Illustrator 26.4.1, SVG Export Plug-In . SVG Version: 6.00 Build 0)  -->
<svg version="1.1" id="Layer_1" xmlns="http://www.w3.org/2000/svg" xmlns:xlink="http://www.w3.org/1999/xlink" x="0px" y="0px"
	 viewBox="0 0 963.95 198.21" style="enable-background:new 0 0 963.95 198.21;" xml:space="preserve">
<style type="text/css">
	.st0{clip-path:url(#SVGID_00000100370487937860908100000014809752205842812071_);}
	.st1{fill:#FFFFFF;}
	.st2{fill:none;stroke:#FFFFFF;stroke-width:8.76;stroke-linecap:square;stroke-miterlimit:10;}
	.st3{fill:none;stroke:#FFFFFF;stroke-width:8.76;stroke-miterlimit:10;}
</style>
<g>
	<defs>
		<rect id="SVGID_1_" x="42.05" y="11.53" width="888.76" height="175.48"/>
	</defs>
	<clipPath id="SVGID_00000079468789598328325120000007496916300308856196_">
		<use xlink:href="#SVGID_1_"  style="overflow:visible;"/>
	</clipPath>
	<g style="clip-path:url(#SVGID_00000079468789598328325120000007496916300308856196_);">
		<path class="st1" d="M102.22,58.28c3.61,0,6.54-2.93,6.54-6.54c0-3.61-2.93-6.54-6.54-6.54c-3.61,0-6.54,2.93-6.54,6.54
			C95.68,55.36,98.6,58.28,102.22,58.28z"/>
		<path class="st1" d="M319.19,58.28c3.61,0,6.54-2.93,6.54-6.54c0-3.61-2.93-6.54-6.54-6.54s-6.54,2.93-6.54,6.54
			C312.65,55.36,315.57,58.28,319.19,58.28z"/>
		<path class="st1" d="M463.54,153.84c3.61,0,6.54-2.93,6.54-6.54s-2.93-6.54-6.54-6.54s-6.54,2.93-6.54,6.54
			S459.92,153.84,463.54,153.84z"/>
		<path class="st1" d="M463.54,172.09c-8.63,0-16.08-4.44-19.5-10.84c0.99,8.64,9.34,15.38,19.5,15.38s18.52-6.74,19.5-15.38
			C479.61,167.65,472.17,172.09,463.54,172.09z"/>
		<path class="st1" d="M686.48,155.03c3.61,0,6.54-2.93,6.54-6.54s-2.93-6.54-6.54-6.54s-6.54,2.93-6.54,6.54
			S682.86,155.03,686.48,155.03z"/>
		<path class="st2" d="M435.77,70.37V51.74c0-10.29,8.34-18.63,18.63-18.63v37.26"/>
		<path class="st2" d="M202.62,70.37V51.74c0-10.29,8.34-18.63,18.63-18.63v37.26"/>
		<path class="st2" d="M887.78,70.11V51.48c0-10.29-8.34-18.63-18.63-18.63v37.26"/>
		<path class="st2" d="M869.15,70.11V51.48c0-10.29-8.34-18.63-18.63-18.63v37.26"/>
		<path class="st2" d="M391.72,70.37V51.74c0-10.29-8.34-18.63-18.63-18.63v37.26"/>
		<path class="st2" d="M373.09,70.37V51.74c0-10.29-8.34-18.63-18.63-18.63v37.26"/>
		<path class="st2" d="M166.42,70.37V15.91"/>
		<path class="st3" d="M169.73,70.37c10.29,0,18.63-8.34,18.63-18.63s-8.34-18.63-18.63-18.63"/>
		<path class="st3" d="M169.73,33.11c5.14,0,9.32-3.85,9.32-8.6s-4.17-8.6-9.32-8.6"/>
		<path class="st3" d="M133.52,70.37c10.29,0,18.63-8.34,18.63-18.63s-8.34-18.63-18.63-18.63"/>
		<path class="st3" d="M133.52,33.11c5.14,0,9.32-3.85,9.32-8.6s-4.17-8.6-9.32-8.6"/>
		<path class="st3" d="M785.36,70.37c-10.29,0-18.63-8.34-18.63-18.63s8.34-18.63,18.63-18.63"/>
		<path class="st3" d="M766.73,51.74h15.26"/>
		<path class="st3" d="M423.06,70.37c-10.29,0-18.63-8.34-18.63-18.63s8.34-18.63,18.63-18.63"/>
		<path class="st3" d="M404.43,51.74h15.26"/>
		<path class="st3" d="M254.24,70.37c-10.29,0-18.63-8.34-18.63-18.63s8.34-18.63,18.63-18.63"/>
		<path class="st3" d="M235.6,51.74h15.26"/>
		<path class="st3" d="M907.8,70.6c10.29,0,18.63-8.34,18.63-18.63s-8.34-18.63-18.63-18.63"/>
		<path class="st2" d="M903.45,33.34V87.8"/>
		<path class="st3" d="M50.77,70.37c10.29,0,18.63-8.34,18.63-18.63s-8.34-18.63-18.63-18.63"/>
		<path class="st2" d="M46.43,33.11v54.46"/>
		<path class="st2" d="M598.28,15.91v54.46"/>
		<path class="st3" d="M565.56,33.11c10.29,0,18.63,8.34,18.63,18.63s-8.34,18.63-18.63,18.63"/>
		<path class="st2" d="M561.21,70.37V15.91"/>
		<path class="st3" d="M476.87,33.11c10.29,0,18.63,8.34,18.63,18.63s-8.34,18.63-18.63,18.63"/>
		<path class="st2" d="M472.52,70.37V15.91"/>
		<path class="st3" d="M292.36,70.37c-10.29,0-18.63-8.34-18.63-18.63s8.34-18.63,18.63-18.63"/>
		<path class="st2" d="M266.63,15.91v54.46"/>
		<path class="st2" d="M649.76,50.76v19.61"/>
		<path class="st2" d="M612.5,33.11v17.66c0,10.29,8.34,18.63,18.63,18.63c10.29,0,18.63-8.34,18.63-18.63V33.11"/>
		<path class="st2" d="M624.92,33.11h12.42"/>
		<path class="st2" d="M797.58,32.85v37.26"/>
		<path class="st2" d="M834.84,32.85v37.26"/>
		<path class="st2" d="M797.58,51.48h37.26"/>
		<path class="st2" d="M509.73,33.11v37.26"/>
		<path class="st2" d="M546.98,33.11v37.26"/>
		<path class="st2" d="M509.73,51.74h37.26"/>
		<path class="st3" d="M101.94,70.37c10.29,0,18.63-8.34,18.63-18.63c0-10.29-8.34-18.63-18.63-18.63
			c-10.29,0-18.63,8.34-18.63,18.63C83.31,62.03,91.66,70.37,101.94,70.37z"/>
		<path class="st2" d="M120.58,70.37V56.14"/>
		<path class="st3" d="M318.92,70.37c10.29,0,18.63-8.34,18.63-18.63c0-10.29-8.34-18.63-18.63-18.63s-18.63,8.34-18.63,18.63
			C300.29,62.03,308.63,70.37,318.92,70.37z"/>
		<path class="st2" d="M337.55,70.37V56.14"/>
		<path class="st2" d="M710.96,33.34V51c0,10.29,8.34,18.63,18.63,18.63c10.29,0,18.63-8.34,18.63-18.63V33.34"/>
		<path class="st3" d="M748.23,50.99V70.6h8.57v17.2"/>
		<path class="st3" d="M565.93,165.43c-10.29,0-18.63-8.34-18.63-18.63s8.34-18.63,18.63-18.63"/>
		<path class="st2" d="M277.72,165.43V146.8c0-10.29,8.34-18.63,18.63-18.63v37.26"/>
		<path class="st2" d="M391.1,165.93V147.3c0-10.29,8.34-18.63,18.63-18.63v37.26"/>
		<path class="st2" d="M409.73,165.93V147.3c0-10.29,8.34-18.63,18.63-18.63v37.26"/>
		<path class="st2" d="M616.78,165.43V146.8c0-10.29-8.34-18.63-18.63-18.63v37.26"/>
		<path class="st2" d="M598.15,165.43V146.8c0-10.29-8.34-18.63-18.63-18.63v37.26"/>
		<path class="st2" d="M719.58,167.99v-54.46"/>
		<path class="st3" d="M722.88,167.99c10.29,0,18.63-8.34,18.63-18.63s-8.34-18.63-18.63-18.63"/>
		<path class="st3" d="M722.88,130.72c5.14,0,9.32-3.85,9.32-8.6s-4.17-8.6-9.32-8.6"/>
		<path class="st2" d="M335.11,128.17v54.46"/>
		<path class="st3" d="M331.8,128.17c-10.29,0-18.63,8.34-18.63,18.63s8.34,18.63,18.63,18.63"/>
		<path class="st3" d="M317.83,187.01c0-11.92,6.26-21.58,13.97-21.58"/>
		<path class="st3" d="M240.65,168.4v-40.23h18.63v40.23"/>
		<path class="st3" d="M268.61,183.35c0-10.29-8.34-18.63-18.63-18.63c-10.29,0-18.63,8.34-18.63,18.63"/>
		<path class="st3" d="M634.73,165.43c10.29,0,18.63-8.34,18.63-18.63s-8.34-18.63-18.63-18.63"/>
		<path class="st2" d="M630.39,128.17v54.46"/>
		<path class="st2" d="M496.43,128.17v37.26"/>
		<path class="st2" d="M533.69,128.17v37.26"/>
		<path class="st2" d="M496.43,146.8h37.26"/>
		<path class="st3" d="M463.53,165.93c10.29,0,18.63-8.34,18.63-18.63s-8.34-18.63-18.63-18.63s-18.63,8.34-18.63,18.63
			S453.25,165.93,463.53,165.93z"/>
		<path class="st3" d="M686.47,167.12c10.29,0,18.63-8.34,18.63-18.63c0-10.29-8.34-18.63-18.63-18.63s-18.63,8.34-18.63,18.63
			C667.84,158.78,676.18,167.12,686.47,167.12z"/>
		<path class="st1" d="M686.48,173.28c-8.63,0-16.08-4.44-19.5-10.84c0.99,8.64,9.34,15.38,19.5,15.38
			c10.16,0,18.52-6.74,19.5-15.38C702.55,168.84,695.11,173.28,686.48,173.28z"/>
	</g>
</g>
</svg>
