<?xml version="1.0" encoding="UTF-8"?>
<svg id="Layer_1" data-name="Layer 1" xmlns="http://www.w3.org/2000/svg" width="121.21" height="141.42" viewBox="0 0 121.21 141.42">
  <defs>
    <style>
      .cls-1 {
        fill: none;
        stroke: #f39200;
        stroke-miterlimit: 10;
        stroke-width: 12px;
      }

      .cls-2 {
        fill: #f39200;
      }
    </style>
  </defs>
  <path class="cls-2" d="M31.79,140.7c14.97-3.05,25.17-14.98,22.78-26.65-2.39-11.67-16.47-18.65-31.44-15.6-14.97,3.05-25.17,14.98-22.78,26.65,2.39,11.67,16.47,18.65,31.44,15.6Z"/>
  <path class="cls-2" d="M97.87,127.24c14.97-3.05,25.17-14.98,22.78-26.65-2.39-11.67-16.47-18.65-31.44-15.6-14.97,3.05-25.17,14.98-22.78,26.65,2.39,11.67,16.47,18.65,31.44,15.6Z"/>
  <path class="cls-1" d="M48.92,115.21L29.53,20.61,95.95,7.08l19.38,94.6"/>
</svg>