<?xml version="1.0" encoding="utf-8"?>
<!-- Generator: Adobe Illustrator 26.4.1, SVG Export Plug-In . SVG Version: 6.00 Build 0)  -->
<svg version="1.1" id="Layer_1" xmlns="http://www.w3.org/2000/svg" xmlns:xlink="http://www.w3.org/1999/xlink" x="0px" y="0px"
	 viewBox="0 0 198 2021" style="enable-background:new 0 0 198 2021;" xml:space="preserve">
<style type="text/css">
	.st0{fill:#82368C;}
	.st1{clip-path:url(#SVGID_00000047772029637717225860000012049081796854396071_);}
	.st2{fill:#04FF00;}
	.st3{fill:#FFFFFF;}
	.st4{fill:#1D1D1B;}
	.st5{fill:#E6332A;}
	.st6{clip-path:url(#SVGID_00000063612554491716622170000006194915649907973530_);}
	.st7{clip-path:url(#SVGID_00000172409465185879917550000001026304040251703991_);}
</style>
<rect x="27" y="25" class="st0" width="144" height="1996"/>
<g>
	<defs>
		<rect id="SVGID_1_" x="37" y="44.6" width="124" height="56"/>
	</defs>
	<clipPath id="SVGID_00000119118367720386308820000002997471427972685737_">
		<use xlink:href="#SVGID_1_"  style="overflow:visible;"/>
	</clipPath>
	<g style="clip-path:url(#SVGID_00000119118367720386308820000002997471427972685737_);">
		<g>
			<path class="st2" d="M55.4,80.9c10.2,0,18.4-8.1,18.4-18.2s-8.2-18.2-18.4-18.2S37,52.7,37,62.8S45.2,80.9,55.4,80.9z"/>
			<path class="st2" d="M99,80.9c10.2,0,18.4-8.1,18.4-18.2S109.2,44.6,99,44.6s-18.4,8.1-18.4,18.2S88.8,80.9,99,80.9z"/>
			<path class="st3" d="M98.8,74.9c6.8,0,12.4-5.5,12.4-12.3s-5.6-12.3-12.4-12.3s-12.4,5.5-12.4,12.3S92,74.9,98.8,74.9z"/>
			<path class="st4" d="M99,68.9c3.5,0,6.3-2.8,6.3-6.2s-2.8-6.2-6.3-6.2s-6.3,2.8-6.3,6.2C92.7,66.2,95.5,68.9,99,68.9z"/>
			<path class="st3" d="M55.4,75c6.8,0,12.4-5.5,12.4-12.3s-5.6-12.3-12.4-12.3S43,56,43,62.8S48.5,75,55.4,75z"/>
			<path class="st4" d="M55.4,68.9c3.5,0,6.3-2.8,6.3-6.2s-2.8-6.2-6.3-6.2s-6.3,2.8-6.3,6.2C49.1,66.2,51.9,68.9,55.4,68.9z"/>
			<path class="st2" d="M142.6,80.9c10.2,0,18.4-8.1,18.4-18.2s-8.2-18.2-18.4-18.2s-18.4,8.1-18.4,18.2S132.4,80.9,142.6,80.9z"/>
			<path class="st3" d="M142.6,75c6.9,0,12.4-5.5,12.4-12.3s-5.6-12.3-12.4-12.3s-12.4,5.5-12.4,12.3S135.8,75,142.6,75z"/>
			<path class="st4" d="M142.6,68.9c3.5,0,6.3-2.8,6.3-6.2s-2.8-6.2-6.3-6.2s-6.3,2.8-6.3,6.2C136.3,66.2,139.1,68.9,142.6,68.9z"/>
			<path class="st5" d="M98.5,100.6c-19.9,0-36.7-13-41.2-30.4c8.6,13.1,24,21.4,40.9,21.4c10.6,0,20.6-3.2,29-9.1
				c5.2-3.7,9.5-8.3,12.7-13.5C136,87,119,100.6,98.5,100.6"/>
		</g>
	</g>
</g>
<g>
	<defs>
		<rect id="SVGID_00000070108160200096306530000006378496029524234121_" x="37" y="119.6" width="124" height="57"/>
	</defs>
	<clipPath id="SVGID_00000178886511144325074510000011666102083939577749_">
		<use xlink:href="#SVGID_00000070108160200096306530000006378496029524234121_"  style="overflow:visible;"/>
	</clipPath>
	<g style="clip-path:url(#SVGID_00000178886511144325074510000011666102083939577749_);">
		<g>
			<path class="st2" d="M55.4,156.6c10.2,0,18.4-8.3,18.4-18.5s-8.2-18.5-18.4-18.5S37,127.9,37,138.1S45.2,156.6,55.4,156.6z"/>
			<path class="st2" d="M99,156.6c10.2,0,18.4-8.3,18.4-18.5s-8.2-18.5-18.4-18.5s-18.4,8.3-18.4,18.5S88.8,156.6,99,156.6z"/>
			<path class="st3" d="M98.8,150.5c6.8,0,12.4-5.6,12.4-12.5s-5.6-12.5-12.4-12.5s-12.4,5.6-12.4,12.5S92,150.5,98.8,150.5z"/>
			<path class="st4" d="M99,144.4c3.5,0,6.3-2.8,6.3-6.3s-2.8-6.3-6.3-6.3s-6.3,2.8-6.3,6.3S95.5,144.4,99,144.4z"/>
			<path class="st3" d="M55.4,150.6c6.8,0,12.4-5.6,12.4-12.5s-5.6-12.5-12.4-12.5S43,131.2,43,138.1S48.5,150.6,55.4,150.6z"/>
			<path class="st4" d="M55.4,144.4c3.5,0,6.3-2.8,6.3-6.3s-2.8-6.3-6.3-6.3s-6.3,2.8-6.3,6.3S51.9,144.4,55.4,144.4z"/>
			<path class="st2" d="M142.6,156.6c10.2,0,18.4-8.3,18.4-18.5s-8.2-18.5-18.4-18.5s-18.4,8.3-18.4,18.5S132.4,156.6,142.6,156.6z"
				/>
			<path class="st3" d="M142.6,150.6c6.9,0,12.4-5.6,12.4-12.5s-5.6-12.5-12.4-12.5s-12.4,5.6-12.4,12.5S135.8,150.6,142.6,150.6z"
				/>
			<path class="st4" d="M142.6,144.4c3.5,0,6.3-2.8,6.3-6.3s-2.8-6.3-6.3-6.3s-6.3,2.8-6.3,6.3S139.1,144.4,142.6,144.4z"/>
			<path class="st5" d="M98.5,176.6c-19.9,0-36.7-13.2-41.2-30.9c8.6,13.4,24,21.8,40.9,21.8c10.6,0,20.6-3.2,29-9.3
				c5.2-3.7,9.5-8.4,12.7-13.8C136,162.8,119,176.6,98.5,176.6"/>
		</g>
	</g>
</g>
<g>
	<defs>
		<rect id="SVGID_00000036970572313680576330000009269597076316169126_" x="37" y="195.6" width="124" height="57"/>
	</defs>
	<clipPath id="SVGID_00000023250645617726791310000002807879047590686600_">
		<use xlink:href="#SVGID_00000036970572313680576330000009269597076316169126_"  style="overflow:visible;"/>
	</clipPath>
	<g style="clip-path:url(#SVGID_00000023250645617726791310000002807879047590686600_);">
		<g>
			<path class="st2" d="M55.4,232.6c10.2,0,18.4-8.3,18.4-18.5s-8.2-18.5-18.4-18.5S37,203.9,37,214.1S45.2,232.6,55.4,232.6z"/>
			<path class="st2" d="M99,232.6c10.2,0,18.4-8.3,18.4-18.5s-8.2-18.5-18.4-18.5s-18.4,8.3-18.4,18.5S88.8,232.6,99,232.6z"/>
			<path class="st3" d="M98.8,226.5c6.8,0,12.4-5.6,12.4-12.5s-5.6-12.5-12.4-12.5s-12.4,5.6-12.4,12.5S92,226.5,98.8,226.5z"/>
			<path class="st4" d="M99,220.4c3.5,0,6.3-2.8,6.3-6.3s-2.8-6.3-6.3-6.3s-6.3,2.8-6.3,6.3S95.5,220.4,99,220.4z"/>
			<path class="st3" d="M55.4,226.6c6.8,0,12.4-5.6,12.4-12.5s-5.6-12.5-12.4-12.5S43,207.2,43,214.1S48.5,226.6,55.4,226.6z"/>
			<path class="st4" d="M55.4,220.4c3.5,0,6.3-2.8,6.3-6.3s-2.8-6.3-6.3-6.3s-6.3,2.8-6.3,6.3S51.9,220.4,55.4,220.4z"/>
			<path class="st2" d="M142.6,232.6c10.2,0,18.4-8.3,18.4-18.5s-8.2-18.5-18.4-18.5s-18.4,8.3-18.4,18.5S132.4,232.6,142.6,232.6z"
				/>
			<path class="st3" d="M142.6,226.6c6.9,0,12.4-5.6,12.4-12.5s-5.6-12.5-12.4-12.5s-12.4,5.6-12.4,12.5S135.8,226.6,142.6,226.6z"
				/>
			<path class="st4" d="M142.6,220.4c3.5,0,6.3-2.8,6.3-6.3s-2.8-6.3-6.3-6.3s-6.3,2.8-6.3,6.3S139.1,220.4,142.6,220.4z"/>
			<path class="st5" d="M98.5,252.6c-19.9,0-36.7-13.2-41.2-30.9c8.6,13.4,24,21.8,40.9,21.8c10.6,0,20.6-3.2,29-9.3
				c5.2-3.7,9.5-8.4,12.7-13.8C136,238.8,119,252.6,98.5,252.6"/>
		</g>
	</g>
</g>
<path class="st0" d="M0,64.6l32.2-17.3v34.6L0,64.6z"/>
<path class="st0" d="M0,140.1l32.2-17.8v35.5L0,140.1z"/>
<path class="st0" d="M0,215.1l32.2-16.9V232L0,215.1z"/>
<path class="st0" d="M198,61.1l-32.2-16.9V78L198,61.1L198,61.1z"/>
<path class="st0" d="M198,136.6l-32.2-17.3v34.6L198,136.6z"/>
<path class="st0" d="M60.8,0L43.6,32.8h34.4L60.8,0z"/>
<path class="st0" d="M136.4,0l-17.2,32.8h34.4L136.4,0z"/>
<path class="st0" d="M198,212.1l-32.2-17.8v35.5L198,212.1L198,212.1z"/>
</svg>
