<?xml version="1.0" encoding="utf-8"?>
<!-- Generator: Adobe Illustrator 26.4.1, SVG Export Plug-In . SVG Version: 6.00 Build 0)  -->
<svg version="1.1" id="Layer_1" xmlns="http://www.w3.org/2000/svg" xmlns:xlink="http://www.w3.org/1999/xlink" x="0px" y="0px"
	 viewBox="0 0 142.8 1253.6" style="enable-background:new 0 0 142.8 1253.6;" xml:space="preserve">
<style type="text/css">
	.st0{fill:#E6332A;}
	.st1{fill:#FFFFFF;}
	.st2{fill:#1D1D1B;}
</style>
<path class="st0" d="M3,92c0-37.6,30.4-68,68-68s68,30.4,68,68v826H3V92z"/>
<path class="st0" d="M36.1,51.3c0,0-14.2,3.4-25.2-24L0,0c0,0,26.6,34.2,31.8,35.4S36.1,51.3,36.1,51.3z"/>
<path class="st0" d="M106.7,51.3c0,0,14.2,3.4,25.2-24L142.8,0c0,0-26.6,34.2-31.8,35.4S106.7,51.3,106.7,51.3z"/>
<path class="st1" d="M71.4,123.7c20.7,0,37.4-16.8,37.4-37.4S92.1,48.8,71.4,48.8S33.9,65.6,33.9,86.3S50.7,123.7,71.4,123.7z"/>
<path class="st2" d="M71.4,99c7,0,12.7-5.7,12.7-12.7s-5.7-12.7-12.7-12.7s-12.7,5.7-12.7,12.7S64.3,99,71.4,99z"/>
<path class="st1" d="M100.1,143.6C96.4,155.4,84.9,164,71.2,164c-7.6,0-14.5-2.7-19.8-7.1v0h0c-4-3.3-7-7.6-8.7-12.5v0.6
	c0,4.9,1.3,9.4,3.7,13.4l0.3,12.8l2.9-8.5c5.3,5.9,13.1,9.6,21.9,9.6s16.6-3.8,21.9-9.6l2.9,8.5l0.3-12.8c2.3-3.9,3.7-8.5,3.7-13.4
	C100.1,144.5,100.1,144.1,100.1,143.6L100.1,143.6z"/>
<rect x="3.4" y="406.5" class="st0" width="136" height="1104.1"/>
</svg>
