<?xml version="1.0" encoding="utf-8"?>
<!-- Generator: Adobe Illustrator 26.4.1, SVG Export Plug-In . SVG Version: 6.00 Build 0)  -->
<svg version="1.1" id="Layer_1" xmlns="http://www.w3.org/2000/svg" xmlns:xlink="http://www.w3.org/1999/xlink" x="0px" y="0px"
	 viewBox="0 0 261.5 152.1" style="enable-background:new 0 0 261.5 152.1;" xml:space="preserve">
<style type="text/css">
	.st0{clip-path:url(#SVGID_00000059270825095250284190000011923747422780640411_);}
	.st1{fill:#E6332A;}
</style>
<g>
	<g>
		<defs>
			<rect id="SVGID_1_" x="56.5" y="1" width="205" height="151"/>
		</defs>
		<clipPath id="SVGID_00000165224196855192863470000012584747746542014364_">
			<use xlink:href="#SVGID_1_"  style="overflow:visible;"/>
		</clipPath>
		<g style="clip-path:url(#SVGID_00000165224196855192863470000012584747746542014364_);">
			<path class="st1" d="M245.8,76.5L245.8,76.5L245.8,76.5l-23.7,0l39.4-5.8l-14.9-17.2l0,0v-0.1h-52.8l19.6,4.9l-35.3,5.2v-5h-0.1
				l14.2-43.2l-15.3-4.6l20-9.7l-35.2,4.8l-17.3,52.7H56.5V152h121.6v-0.1l80-11.7l-13.8-17.3l-0.2,0v0h-25.9l43.3-6.4l-15.7-17h0
				v-0.1h-24.7l40.4-5.9L245.8,76.5z"/>
		</g>
	</g>
</g>
<rect y="58.6" class="st1" width="153.8" height="93.5"/>
</svg>
