<?xml version="1.0" encoding="utf-8"?>
<!-- Generator: Adobe Illustrator 26.4.1, SVG Export Plug-In . SVG Version: 6.00 Build 0)  -->
<svg version="1.1" id="Layer_1" xmlns="http://www.w3.org/2000/svg" xmlns:xlink="http://www.w3.org/1999/xlink" x="0px" y="0px"
	 viewBox="0 0 261.5 152.1" style="enable-background:new 0 0 261.5 152.1;" xml:space="preserve">
<style type="text/css">
	.st0{clip-path:url(#SVGID_00000148637263965117356190000015447664143331952812_);}
	.st1{fill:#E6332A;}
</style>
<g>
	<g>
		<g>
			<defs>
				<rect id="SVGID_1_" y="1" width="205" height="151"/>
			</defs>
			<clipPath id="SVGID_00000099651465758833099460000009704745743827292066_">
				<use xlink:href="#SVGID_1_"  style="overflow:visible;"/>
			</clipPath>
			<g style="clip-path:url(#SVGID_00000099651465758833099460000009704745743827292066_);">
				<path class="st1" d="M15.7,76.5L15.7,76.5L15.7,76.5l23.6,0L0,70.7l14.9-17.2l0,0v-0.1h52.8l-19.6,4.9l35.3,5.2v-5h0.1
					L69.4,15.3l15.3-4.6L64.7,1l35.2,4.8l17.3,52.7H205V152H83.4v-0.1l-80-11.7l13.8-17.3l0.2,0v0h25.9L0,116.6l15.7-17h0v-0.1h24.7
					L0,93.5L15.7,76.5z"/>
			</g>
		</g>
	</g>
</g>
<rect x="107.7" y="58.6" class="st1" width="153.8" height="93.5"/>
</svg>
