<?xml version="1.0" encoding="UTF-8"?>
<svg id="Layer_1" data-name="Layer 1" xmlns="http://www.w3.org/2000/svg" width="207.16" height="228.49" xmlns:xlink="http://www.w3.org/1999/xlink" viewBox="0 0 207.16 228.49">
  <defs>
    <style>
      .cls-1 {
        fill: none;
      }

      .cls-2 {
        clip-path: url(#clippath);
      }

      .cls-3 {
        fill: #82368c;
      }
    </style>
    <clipPath id="clippath">
      <rect class="cls-1" x="-21.92" y="85.25" width="251" height="58" transform="translate(-50.56 118.76) rotate(-49.48)"/>
    </clipPath>
  </defs>
  <g class="cls-2">
    <g>
      <path class="cls-3" d="M128.72,56.23l27.27,23.3c1.5-2.03,3.1-4,4.76-5.89l-26.87-22.96c-1.62,1.92-3.35,3.79-5.16,5.55Z"/>
      <path class="cls-3" d="M140.18,42.14l28.07,23.99c4.21-3.76,8.75-7.16,13.56-10.17,2.19-1.38,4.19-3.13,5.89-5.27,7.66-9.6,6.5-23.69-2.64-31.89-9.79-8.78-24.83-7.71-33.33,2.23-1.67,1.95-2.96,4.1-3.87,6.35-2.11,5.17-4.66,10.11-7.66,14.78h-.01Z"/>
      <path class="cls-3" d="M146.25,93.3c.2-.39,1.57-2.29,3.58-5.12l-28.7-24.53c-2.48,2.42-4.15,4.07-4.5,4.33C72.2,101.78,35.52,144.7,9.05,193.85c-.99,1.84,.4,5.04,3.24,7.47l9.24,7.9,9.24,7.9c2.84,2.42,6.23,3.31,7.88,2.03,45.63-32.5,82.57-75.73,107.57-125.87l.02,.02Z"/>
    </g>
  </g>
</svg>